<svg width="110" height="39" viewBox="0 0 110 39" fill="none" xmlns="http://www.w3.org/2000/svg">
<path d="M33.4994 17.8537C25.8468 19.8232 19.8213 25.8487 17.8518 33.5014C17.4043 35.2412 17.166 37.0656 17.166 38.9462H22.6108C22.6108 37.0374 22.938 35.2044 23.5403 33.5014C25.1805 28.8604 28.8584 25.1825 33.4994 23.5423C35.2024 22.94 37.0354 22.6128 38.9443 22.6128V17.168C37.0647 17.1669 35.2403 17.4052 33.4994 17.8537Z" fill="white"/>
<path d="M23.5408 6.27686C22.9384 4.57386 22.6113 2.74086 22.6113 0.832031H17.1664C17.1664 2.74086 16.8393 4.57386 16.2369 6.27686C14.5968 10.9179 10.9188 14.5958 6.27784 16.2359C4.57484 16.8383 2.74184 17.1654 0.833008 17.1654V22.6103C2.74184 22.6103 4.57484 22.9374 6.27784 23.5398C10.5928 25.0651 14.0735 28.353 15.8599 32.5369C16.4753 30.3149 17.395 28.2241 18.578 26.3153C16.693 23.6719 14.2306 21.4706 11.3771 19.8889C14.951 17.9075 17.9085 14.95 19.8899 11.3761C21.4727 14.2296 23.6729 16.692 26.3163 18.577C28.2251 17.394 30.3159 16.4743 32.5378 15.8589C28.354 14.0714 25.0661 10.5918 23.5408 6.27686Z" fill="white"/>
<path d="M56.0701 11.375L48.4727 28.3985H51.5212L53.4852 23.9774H62.465L64.4291 28.3985H67.5285L59.9311 11.375H56.0701ZM54.5805 21.5128L56.8826 16.3302L57.8738 13.9165H58.0775L59.0687 16.3302L61.3708 21.5128H54.5805Z" fill="white"/>
<path d="M92.2078 16.1255C91.5979 15.7193 90.8103 15.5156 89.8451 15.5156C88.9816 15.5156 88.2482 15.677 87.647 15.9977C87.0457 16.3195 86.5669 16.756 86.2116 17.3064C85.8562 17.8567 85.619 18.4796 85.4998 19.174H85.3221V15.7691H82.8066V28.3965H85.5507V21.3082C85.5507 20.1902 85.788 19.3355 86.2625 18.7418C86.7359 18.1492 87.5159 17.8524 88.6003 17.8524C89.5482 17.8524 90.2264 18.0647 90.6326 18.4872C91.0389 18.9108 91.2426 19.5792 91.2426 20.4946V21.6126H93.9617V19.9616C93.9617 19.1654 93.822 18.4287 93.5425 17.7516C93.263 17.0745 92.8177 16.5318 92.2078 16.1255Z" fill="white"/>
<path d="M109.167 21.0575V20.804C109.167 19.7369 108.883 18.8096 108.315 18.022C107.747 17.2344 106.973 16.6202 105.99 16.1804C105.008 15.7394 103.881 15.5195 102.611 15.5195C101.222 15.5195 100.011 15.7947 98.9778 16.345C97.9443 16.8954 97.1437 17.6624 96.576 18.6439C96.0083 19.6264 95.7256 20.778 95.7256 22.0997C95.7256 23.3867 96.0083 24.5264 96.576 25.5176C97.1437 26.5089 97.9443 27.2791 98.9778 27.8294C100.01 28.3798 101.222 28.6549 102.611 28.6549C103.882 28.6549 105.008 28.435 105.99 27.9941C106.973 27.5543 107.747 26.9357 108.315 26.1394C108.883 25.3432 109.167 24.4202 109.167 23.3704V23.0909H106.447V23.2686C106.447 24.2512 106.108 24.9835 105.431 25.4667C104.753 25.9499 103.796 26.1904 102.56 26.1904C101.138 26.1904 100.096 25.8469 99.4349 25.1612C98.7741 24.4754 98.4437 23.4549 98.4437 22.0997C98.4437 20.7282 98.7741 19.699 99.4349 19.0122C100.096 18.3264 101.137 17.983 102.56 17.983C103.796 17.983 104.754 18.2246 105.431 18.7078C106.108 19.1899 106.447 19.9233 106.447 20.9059V21.0586H109.167V21.0575Z" fill="white"/>
<path d="M78.1612 16.1884C77.3054 15.7399 76.2091 15.5156 74.8711 15.5156C73.5332 15.5156 72.3849 15.7355 71.4283 16.1765C70.4707 16.6174 69.7383 17.2143 69.2302 17.9672C68.7221 18.7212 68.4687 19.5803 68.4687 20.5466V20.6485H71.1878V20.5466C71.1878 19.615 71.476 18.9455 72.0512 18.5392C72.6265 18.133 73.4996 17.9293 74.6686 17.9293C75.8884 17.9293 76.7475 18.1373 77.248 18.5522C77.7474 18.9671 77.9976 19.7005 77.9976 20.7503V21.488L72.256 22.0958C71.4261 22.1976 70.7057 22.3753 70.0958 22.6288C69.4859 22.8834 69.0157 23.2344 68.6853 23.6829C68.3874 24.088 68.2314 24.5831 68.2021 25.1595L69.3786 27.7963C70.1456 28.365 71.1716 28.651 72.4586 28.651C73.8983 28.651 75.0965 28.351 76.0541 27.7497C77.0107 27.1485 77.6586 26.3143 77.9976 25.2472H78.1753V28.3975H80.6908V20.7243C80.6908 19.7081 80.4828 18.81 80.0679 18.0311C79.6519 17.2522 79.0171 16.638 78.1612 16.1884ZM77.3867 25.1454C76.9804 25.6708 76.4214 26.0554 75.7096 26.3013C74.9979 26.5472 74.1594 26.6696 73.1941 26.6696C72.4152 26.6696 71.8432 26.5472 71.4792 26.3013C71.1152 26.0565 70.9332 25.6784 70.9332 25.1703C70.9332 24.6795 71.1066 24.3285 71.4543 24.1162C71.801 23.905 72.3307 23.7565 73.0425 23.671L77.9966 23.1152C77.9955 23.945 77.7929 24.621 77.3867 25.1454Z" fill="white"/>
</svg>
